<?xml version="1.0" encoding="UTF-8"?>
<svg width="50px" height="50px" viewBox="0 0 50 50" version="1.1" xmlns="http://www.w3.org/2000/svg" xmlns:xlink="http://www.w3.org/1999/xlink">
    <title>Group</title>
    <g id="Page-1" stroke="none" stroke-width="1" fill="none" fill-rule="evenodd">
        <g id="Group" fill-rule="nonzero">
            <path d="M12.0203046,39 C9.69204738,39 7.62774958,38.5018051 5.82741117,37.5054152 C4.02707276,36.5090253 2.60575296,35.1459085 1.56345178,33.416065 C0.521150592,31.6862214 0,29.7141998 0,27.5 C0,25.2581227 0.521150592,23.2722623 1.56345178,21.5424188 C2.60575296,19.8125752 4.02707276,18.4563779 5.82741117,17.4738267 C7.62774958,16.4912756 9.69204738,16 12.0203046,16 C14.321489,16 16.3790186,16.4912756 18.1928934,17.4738267 C20.0067682,18.4563779 21.428088,19.8056558 22.4568528,21.5216606 C23.4856176,23.2376655 24,25.2304452 24,27.5 C24,29.7141998 23.4856176,31.6862214 22.4568528,33.416065 C21.428088,35.1459085 20.0067682,36.5090253 18.1928934,37.5054152 C16.3790186,38.5018051 14.321489,39 12.0203046,39 Z" id="Shape" fill="#ED0000"></path>
            <path d="M36.0203046,23 C33.6920474,23 31.6277496,22.5018051 29.8274112,21.5054152 C28.0270728,20.5090253 26.605753,19.1459085 25.5634518,17.416065 C24.5211506,15.6862214 24,13.7141998 24,11.5 C24,9.25812274 24.5211506,7.27226233 25.5634518,5.54241877 C26.605753,3.81257521 28.0270728,2.45637786 29.8274112,1.47382671 C31.6277496,0.491275572 33.6920474,0 36.0203046,0 C38.321489,0 40.3790186,0.491275572 42.1928934,1.47382671 C44.0067682,2.45637786 45.428088,3.80565584 46.4568528,5.52166065 C47.4856176,7.23766546 48,9.23044525 48,11.5 C48,13.7141998 47.4856176,15.6862214 46.4568528,17.416065 C45.428088,19.1459085 44.0067682,20.5090253 42.1928934,21.5054152 C40.3790186,22.5018051 38.321489,23 36.0203046,23 Z" id="Shape-Copy" fill="#0073ED"></path>
            <path d="M38.0203046,50 C35.6920474,50 33.6277496,49.5018051 31.8274112,48.5054152 C30.0270728,47.5090253 28.605753,46.1459085 27.5634518,44.416065 C26.5211506,42.6862214 26,40.7141998 26,38.5 C26,36.2581227 26.5211506,34.2722623 27.5634518,32.5424188 C28.605753,30.8125752 30.0270728,29.4563779 31.8274112,28.4738267 C33.6277496,27.4912756 35.6920474,27 38.0203046,27 C40.321489,27 42.3790186,27.4912756 44.1928934,28.4738267 C46.0067682,29.4563779 47.428088,30.8056558 48.4568528,32.5216606 C49.4856176,34.2376655 50,36.2304452 50,38.5 C50,40.7141998 49.4856176,42.6862214 48.4568528,44.416065 C47.428088,46.1459085 46.0067682,47.5090253 44.1928934,48.5054152 C42.3790186,49.5018051 40.321489,50 38.0203046,50 Z" id="Shape-Copy-2" fill="#FFB400"></path>
        </g>
    </g>
</svg>